<svg width="14" height="13" viewBox="0 0 14 13" fill="none" xmlns="http://www.w3.org/2000/svg">
<path fill-rule="evenodd" clip-rule="evenodd" d="M10.1985 11.4514C10.1651 11.6059 10.0807 11.7267 9.94575 11.8146C8.91791 12.4887 7.75436 12.8267 6.45547 12.8279C4.68991 12.8279 3.17947 12.2066 1.9253 10.9639L1.91519 10.9544C0.6513 9.72088 0.0193558 8.2362 0.0193558 6.49994C0.0193558 4.75909 0.6548 3.27135 1.92491 2.03597V2.04553C3.17869 0.810528 4.68836 0.192264 6.45508 0.191116C7.75397 0.193792 8.91752 0.52491 9.94575 1.18523C10.0807 1.27279 10.1647 1.394 10.1985 1.54847C10.23 1.70256 10.2009 1.84594 10.111 1.97862C10.022 2.11167 9.89908 2.19426 9.74158 2.22715C9.58525 2.25773 9.43941 2.22944 9.30408 2.14073C8.46564 1.60315 7.51597 1.3355 6.45547 1.33779C5.00763 1.33665 3.7698 1.83982 2.74158 2.84809V2.85726C1.70441 3.86515 1.18602 5.07912 1.18602 6.49918C1.18602 7.91923 1.70441 9.1332 2.74158 10.1411L2.7513 10.1514C3.77641 11.1711 5.01113 11.6808 6.45508 11.6808C7.51558 11.6824 8.46486 11.4082 9.30369 10.8588C9.43863 10.7704 9.58447 10.7418 9.74119 10.7727C9.89869 10.8052 10.022 10.8882 10.111 11.0213C10.2009 11.1532 10.23 11.2966 10.1985 11.4514ZM11.1999 9.52053C11.0572 9.66085 10.8888 9.73082 10.6944 9.73082C10.4221 9.74382 10.2471 9.62262 10.1694 9.36759C10.1044 9.13817 10.176 8.88965 10.3832 8.622L11.511 7.22641L7.01936 7.03523C6.86419 7.03523 6.72769 6.98438 6.61102 6.88229C6.52041 6.76759 6.47491 6.64638 6.47491 6.51906C6.47491 6.37912 6.52002 6.26403 6.61102 6.17494C6.72769 6.04762 6.8638 5.98376 7.01936 5.98376L11.5305 5.8117C11.0899 5.18694 10.7138 4.67115 10.4027 4.26279C10.0655 3.86782 10.0655 3.55544 10.4027 3.32641C10.5065 3.30079 10.6037 3.28817 10.6944 3.28817C10.8888 3.28817 11.0572 3.35853 11.1999 3.49847L13.7471 6.00288C13.76 6.00288 13.7666 6.00938 13.7666 6.022C13.9093 6.16194 13.9805 6.32788 13.9805 6.51906C13.9805 6.71023 13.9089 6.87617 13.7666 7.01612L11.1999 9.52053Z" fill="#987D8C"/>
</svg>
