<svg width="99" height="31" viewBox="0 0 99 31" fill="none" xmlns="http://www.w3.org/2000/svg">
<path fill-rule="evenodd" clip-rule="evenodd" d="M11.727 0C14.9702 0 17.732 1.12396 20.0124 3.3723C22.3069 5.63446 23.4541 8.36456 23.4541 11.5622C23.4541 14.7598 22.3069 17.4827 20.0124 19.7311C17.732 21.9932 14.9702 23.1243 11.727 23.1243C8.48383 23.1243 5.71481 21.9932 3.42039 19.7311C1.14041 17.4827 0 14.7598 0 11.5622C0 8.36456 1.14041 5.63446 3.42039 3.3723C5.71481 1.12396 8.48383 0 11.727 0Z" fill="#CC0F2B"/>
<path fill-rule="evenodd" clip-rule="evenodd" d="M18.5676 19.0398C18.5676 18.6209 18.4469 18.2091 18.2065 17.804C17.9375 17.3574 17.5406 16.9662 17.0168 16.631C16.9887 16.631 16.9602 16.631 16.9318 16.631C16.8183 16.6172 16.7049 16.6101 16.5919 16.6101C16.5353 16.5959 16.4856 16.5959 16.4431 16.6101L15.9758 16.631C15.8343 16.6587 15.6924 16.6868 15.5509 16.7148C15.4944 16.7286 15.4447 16.7425 15.4022 16.7567C15.0338 16.8405 14.7296 16.9938 14.4886 17.2175C14.1912 17.4412 13.9715 17.7064 13.8301 18.0135C13.7026 18.3763 13.6673 18.7395 13.7238 19.1027C13.7663 19.4659 13.8866 19.8081 14.085 20.129C14.2974 20.4503 14.5524 20.6879 14.8498 20.8412C15.0478 20.925 15.2322 20.9945 15.4022 21.0506C15.5156 21.0645 15.6218 21.0783 15.7208 21.0925C15.7489 21.0925 15.7846 21.0996 15.8271 21.1139C15.898 21.1139 15.9613 21.1139 16.0183 21.1139H16.0395C16.1954 21.1139 16.3441 21.1068 16.4856 21.0925L16.7406 21.0506C16.967 20.9945 17.208 20.925 17.4629 20.8412C17.8028 20.7017 18.079 20.4641 18.2914 20.129C18.4754 19.7939 18.5676 19.4311 18.5676 19.0398ZM17.7816 12.1277C17.9655 11.5131 17.9303 10.7591 17.6753 9.8655C17.4484 9.1814 17.0805 8.69965 16.5706 8.42023C16.1317 8.15505 15.6856 8.08509 15.2322 8.21077C14.8073 8.36451 14.5099 8.69253 14.3399 9.19523C14.17 9.726 14.1415 10.3749 14.255 11.1432C14.4818 11.9253 14.8358 12.5047 15.3172 12.8817C15.7846 13.2587 16.266 13.3635 16.7618 13.1959C17.2857 13.0422 17.6256 12.6861 17.7816 12.1277ZM18.4826 8.21077C18.7941 8.50401 19.021 8.90199 19.1625 9.40469C19.4174 10.103 19.4386 10.78 19.2262 11.4364C19.1552 11.7435 19.0418 12.0158 18.8863 12.2533C18.8438 12.3928 18.7728 12.5118 18.6738 12.6094C18.5179 12.8189 18.3407 13.0145 18.1427 13.1959C18.0858 13.2516 18.022 13.3078 17.9515 13.3635C17.3282 14.0057 17.3992 14.6412 18.164 15.2696C18.2205 15.2972 18.2774 15.3324 18.3339 15.3743C20.0054 16.5749 20.4231 18.0901 19.5874 19.9196C18.7941 21.3162 17.3779 21.9865 15.3384 21.9304C15.225 21.9304 15.1188 21.9304 15.0198 21.9304C14.014 21.8047 13.2492 21.4281 12.7253 20.7997C12.6404 20.6736 12.5622 20.5203 12.4916 20.3385C12.3357 20.0033 12.258 19.6406 12.258 19.2493C12.258 18.8723 12.3357 18.4739 12.4916 18.0549C13.0155 17.0219 13.9647 16.3721 15.3384 16.1074C15.6924 16.0513 16.0748 16.0165 16.4856 16.0027C15.9617 15.3324 15.8555 14.6412 16.167 13.929C15.1332 13.999 14.3187 13.7824 13.7238 13.2797C13.0725 12.7632 12.7113 11.9882 12.6404 10.9547C12.6119 10.452 12.6969 9.97735 12.8953 9.53036C13.0793 9.09762 13.3555 8.72059 13.7238 8.39928C14.0497 8.07797 14.4462 7.82662 14.9135 7.64523C15.3809 7.43577 15.8623 7.31721 16.3582 7.28915H18.9713C18.9997 7.5405 18.8791 7.72189 18.6101 7.83374C18.3411 7.91753 18.2982 8.0432 18.4826 8.21077ZM3.93006 2.63915L3.44143 2.42969H10.261V4.52428C10.162 4.23104 10.0205 3.97298 9.83607 3.74928C9.46769 3.3023 8.96504 3.09284 8.3277 3.1209H6.96804C6.79808 3.10666 6.66339 3.1628 6.56439 3.28847C6.43693 3.42797 6.38721 3.63743 6.41568 3.91685V5.46685C6.38721 6.1233 6.46539 6.57698 6.64937 6.82834C6.79086 7.05204 7.10273 7.21961 7.58414 7.33104C7.99458 7.45672 8.46196 7.52667 8.98628 7.5405L9.19873 8.12699L7.98778 8.21077C7.46389 8.26649 7.06024 8.51784 6.77684 8.96482C6.56439 9.31378 6.44372 9.76077 6.41568 10.3054V12.1486C6.41568 12.4976 6.44372 12.7632 6.50066 12.9446C6.54315 13.1402 6.62813 13.2659 6.7556 13.3216C6.92555 13.4054 7.11675 13.4473 7.3292 13.4473C8.24994 13.503 8.9013 13.4891 9.28371 13.4054C9.76511 13.3216 10.2185 13.0774 10.6434 12.6723C10.9268 12.379 11.0827 12.0786 11.1107 11.7716L12.0455 14.1594H3.31396C4.03628 13.9361 4.45438 13.6567 4.5674 13.3216C4.65238 13.0003 4.69487 12.6165 4.69487 12.1696V9.38374V6.63982V4.39861C4.69487 3.96586 4.65238 3.60266 4.5674 3.30942C4.45395 2.97428 4.24151 2.751 3.93006 2.63915Z" fill="white"/>
<path fill-rule="evenodd" clip-rule="evenodd" d="M77.9042 16.6311C78.1596 15.7656 78.1027 14.6831 77.7347 13.3845C77.4228 12.421 76.9057 11.7298 76.1834 11.3108C75.518 10.9338 74.8663 10.8429 74.2289 11.0385C73.6196 11.248 73.1879 11.7159 72.933 12.4419C72.7061 13.1821 72.6708 14.1105 72.8268 15.2277C73.1527 16.3588 73.6621 17.1895 74.3564 17.7203C75.0362 18.2649 75.7373 18.4186 76.4596 18.1815C77.1819 17.9574 77.6633 17.4413 77.9042 16.6311ZM79.1152 10.473C78.7043 10.5987 78.6474 10.7801 78.9452 11.0176C79.3841 11.4365 79.7168 12.0159 79.9441 12.7561C80.2552 13.7334 80.2841 14.7041 80.0287 15.6676C79.9012 16.0865 79.7385 16.4774 79.5405 16.8406C79.4415 17.0077 79.3281 17.1686 79.2006 17.3219C78.9737 17.629 78.7188 17.9155 78.4354 18.1811C78.3364 18.2506 78.2446 18.3277 78.1596 18.4115C77.2669 19.347 77.3663 20.2615 78.457 21.1554C78.5416 21.1973 78.6198 21.2463 78.6907 21.3021C81.1266 23.02 81.7215 25.1913 80.4753 27.8167C79.3561 29.8275 77.3238 30.7977 74.3776 30.7277C74.2221 30.7277 74.0662 30.7206 73.9102 30.7068C72.4656 30.5535 71.3749 30.016 70.6386 29.0939C70.4971 28.8983 70.3764 28.6822 70.2774 28.4446C70.079 27.9557 69.98 27.4321 69.98 26.8737C69.98 26.3148 70.0862 25.7493 70.2987 25.1766C71.035 23.6547 72.3946 22.7193 74.3776 22.3703C74.8875 22.2865 75.4399 22.2375 76.0347 22.2233C75.2555 21.2597 75.0927 20.261 75.5461 19.2284C74.1019 19.326 72.9334 19.0189 72.0407 18.3068C71.12 17.5527 70.6105 16.4426 70.5111 14.9764C70.4542 14.2504 70.5676 13.5659 70.851 12.9237C71.1059 12.3091 71.5024 11.7645 72.0407 11.2899C72.5366 10.8291 73.117 10.4659 73.7832 10.2007C74.4486 9.92128 75.1424 9.75371 75.8648 9.698H79.6255C79.6816 10.0612 79.5116 10.3193 79.1152 10.473ZM72.0407 26.6642C72.0976 27.195 72.2812 27.6901 72.5931 28.1514C72.8905 28.5841 73.2661 28.9193 73.719 29.1564C73.9595 29.2825 74.2149 29.3801 74.4838 29.4496C74.6253 29.4773 74.7745 29.5057 74.93 29.5334C74.9729 29.5334 75.0222 29.5405 75.0791 29.5543C75.1781 29.5543 75.2775 29.5543 75.3765 29.5543H75.3978C75.6243 29.5543 75.8439 29.5405 76.0564 29.5124L76.4175 29.4701C76.7579 29.3868 77.0906 29.2749 77.4165 29.135C77.9263 28.9394 78.3296 28.6114 78.6274 28.1505C78.9108 27.6755 79.0523 27.1518 79.0523 26.5796C79.0383 25.965 78.8611 25.3647 78.5212 24.7782C78.1243 24.1356 77.5579 23.5701 76.8216 23.0812C76.7791 23.0812 76.7294 23.0812 76.6729 23.0812C76.517 23.0674 76.3682 23.0603 76.2268 23.0603C76.1278 23.0464 76.0356 23.0464 75.9506 23.0603L75.3132 23.1026C75.1008 23.1302 74.8883 23.1721 74.6759 23.2282C74.6049 23.2421 74.5416 23.2559 74.4847 23.2701C73.9748 23.4101 73.5359 23.6333 73.1675 23.9408C72.7426 24.276 72.424 24.6668 72.2115 25.1138C72.0122 25.6027 71.9557 26.1196 72.0407 26.6642Z" fill="white"/>
<path fill-rule="evenodd" clip-rule="evenodd" d="M98.7449 16.4218L98.7237 16.4637L98.6812 16.4846L98.6387 16.3799H98.7024L98.7449 16.4218Z" fill="#FF99FF"/>
<path fill-rule="evenodd" clip-rule="evenodd" d="M37.1356 2.38794V5.4251C36.9941 5.00618 36.7889 4.62916 36.5195 4.29402C35.9812 3.65182 35.2589 3.35857 34.3526 3.41429L32.3768 3.39334C32.1499 3.37952 31.9591 3.45618 31.8032 3.62375C31.6048 3.83321 31.527 4.14028 31.5695 4.54537V6.76564C31.5415 7.70109 31.6617 8.35753 31.9307 8.73456C32.1431 9.04163 32.5893 9.28586 33.2691 9.46767C33.8784 9.63524 34.5438 9.72614 35.2661 9.73996L35.606 10.5778L33.8852 10.7035C33.1063 10.7873 32.5183 11.1505 32.1219 11.7927C31.796 12.3092 31.612 12.9518 31.5695 13.7197V16.3589C31.5695 16.8616 31.612 17.2457 31.697 17.5109C31.7679 17.7765 31.895 17.9575 32.0794 18.0555C32.3199 18.1674 32.5965 18.2302 32.9079 18.244C34.2391 18.314 35.1811 18.293 35.7335 18.1816C36.4273 18.0417 37.0646 17.6789 37.6455 17.092C38.0559 16.6869 38.2828 16.2613 38.3253 15.8143L39.685 19.2285H27.1719C28.1916 18.9214 28.7792 18.523 28.9352 18.0341C29.0767 17.5733 29.1476 17.0292 29.1476 16.4008V12.4001V8.44132V5.21564C29.1476 4.58726 29.0767 4.06361 28.9352 3.6447C28.7792 3.19771 28.489 2.88352 28.0642 2.70213L27.3631 2.38794H37.1356Z" fill="white"/>
<path fill-rule="evenodd" clip-rule="evenodd" d="M46.9933 10.7036C46.7949 11.0806 46.554 11.5971 46.271 12.2536C46.1151 12.6025 45.669 13.6779 44.9326 15.4793C44.2243 17.1968 43.7217 18.4465 43.4242 19.2286H42.4682C41.9724 17.9995 41.4978 16.8055 41.0449 15.6464C40.535 14.4177 40.1169 13.3914 39.7914 12.5673C39.4655 11.7295 39.2038 11.1221 39.0054 10.7451C38.7929 10.2985 38.4033 9.94911 37.8369 9.69775H42.6594V9.73965C42.5885 9.73965 42.3692 9.84438 42.0009 10.0538C41.6185 10.2771 41.5475 10.7241 41.7884 11.3944C42.0149 12.0366 42.2413 12.6511 42.4682 13.2376C42.6807 13.8522 42.8859 14.4315 43.0843 14.9761C43.2543 15.3812 43.403 15.744 43.5305 16.0653C44.4512 14.013 45.0601 12.4769 45.3575 11.4572C45.5559 10.7731 45.4637 10.3123 45.0813 10.0748C44.6989 9.8515 44.4652 9.72582 44.3803 9.69775H48.2043C47.6094 9.9357 47.2058 10.2708 46.9933 10.7036Z" fill="white"/>
<path fill-rule="evenodd" clip-rule="evenodd" d="M52.4532 9.698H52.4957C53.1331 9.698 53.7139 9.85844 54.2382 10.1798C54.7196 10.473 55.1233 10.8429 55.4492 11.2899C55.7466 11.7645 55.9165 12.2743 55.959 12.8189C56.0015 13.3497 55.9093 13.8315 55.6828 14.2642L50.1801 14.3271C50.2085 14.8716 50.3853 15.4301 50.7112 16.0027C50.9946 16.5193 51.377 16.903 51.8584 17.1548C52.2408 17.378 52.7651 17.5175 53.4305 17.5737C54.3652 17.6294 55.1793 17.4199 55.8736 16.9453C55.7886 17.4061 55.5269 17.825 55.0876 18.2021C54.6627 18.5933 54.1316 18.8928 53.4942 19.1023C53.1828 19.1861 52.8352 19.2284 52.4532 19.2284C51.5325 19.2284 50.7324 19.0261 50.0526 18.621C49.4012 18.2297 48.8841 17.6994 48.5017 17.0291C48.1478 16.3584 47.9566 15.6253 47.9281 14.8298C47.9001 14.0619 48.0271 13.3635 48.3105 12.7352C48.5655 12.1068 48.9054 11.576 49.3298 11.1433C49.7688 10.6963 50.2578 10.3402 50.7957 10.075C51.3341 9.82367 51.8864 9.698 52.4532 9.698ZM53.7067 11.646C53.3383 10.9619 52.7931 10.6267 52.0704 10.6406C51.405 10.6544 50.8947 11.0105 50.5408 11.7088C50.2999 12.1554 50.1792 12.6652 50.1792 13.2379H54.067C54.0678 12.6233 53.9476 12.093 53.7067 11.646Z" fill="white"/>
<path fill-rule="evenodd" clip-rule="evenodd" d="M60.4624 10.7872C60.5899 10.6753 60.7246 10.5777 60.8661 10.4939C61.121 10.3544 61.3972 10.2288 61.6946 10.1169C61.7936 10.075 61.893 10.0403 61.992 10.0122C62.0766 9.98454 62.1616 9.95647 62.247 9.9284C62.7993 9.77466 63.3585 9.71182 63.9253 9.73989L64.3073 9.78178V12.5676H64.159C64.06 12.2605 63.9185 11.9811 63.7341 11.7298C63.5357 11.4922 63.288 11.3037 62.9905 11.1642C62.5376 10.9548 62.1055 10.9619 61.6946 11.1852C60.8729 11.6041 60.4624 12.372 60.4624 13.4892V16.9453C60.3775 18.0064 60.9443 18.7676 62.162 19.2284H56.7871C57.3254 19.0466 57.7146 18.6696 57.9556 18.0973C58.1111 17.7203 58.1893 17.3366 58.1893 16.9453V12.4838C58.2033 12.0791 58.1608 11.5484 58.0618 10.8919C57.9628 10.2355 57.6441 9.8375 57.1058 9.698H60.462V10.7872H60.4624Z" fill="white"/>
<path fill-rule="evenodd" clip-rule="evenodd" d="M66.3046 5.40412C66.6304 5.08281 67.0201 4.92236 67.473 4.92236C67.9548 4.92236 68.3657 5.08281 68.7052 5.40412C68.9176 5.6274 69.0591 5.90682 69.1301 6.24196C69.1441 6.36763 69.1513 6.50043 69.1513 6.63993C69.1513 7.0865 69.0026 7.45682 68.7052 7.75007C68.3653 8.07138 67.9476 8.25277 67.4518 8.29466C67.0128 8.25277 66.616 8.07138 66.2621 7.75007C65.9646 7.45682 65.8015 7.08692 65.7734 6.63993C65.7875 6.50043 65.8087 6.36763 65.8372 6.24196C65.9077 5.90682 66.0636 5.6274 66.3046 5.40412Z" fill="#CD102C"/>
<path fill-rule="evenodd" clip-rule="evenodd" d="M66.1131 9.71899H66.8567H69.7034C68.7547 9.9561 68.3153 10.9058 68.3863 12.5676V15.3744V16.8197C68.3863 17.322 68.4288 17.6994 68.5137 17.9503C68.7122 18.523 69.1298 18.949 69.7672 19.2285H64.626C65.6317 18.9071 66.1271 18.1041 66.1131 16.8197V9.71899Z" fill="white"/>
<path fill-rule="evenodd" clip-rule="evenodd" d="M85.4035 6.24196C85.4175 6.36763 85.4248 6.50043 85.4248 6.63993C85.4248 7.0865 85.276 7.45682 84.9786 7.75007C84.6387 8.07138 84.221 8.25277 83.7252 8.29466C83.2863 8.25277 82.8894 8.07138 82.5355 7.75007C82.2381 7.45682 82.0753 7.08692 82.0469 6.63993C82.0609 6.50043 82.0826 6.36763 82.1106 6.24196C82.1816 5.90682 82.3371 5.6274 82.578 5.40412C82.9039 5.08281 83.2935 4.92236 83.7464 4.92236C84.2283 4.92236 84.6391 5.08281 84.9786 5.40412C85.1911 5.6274 85.3325 5.90682 85.4035 6.24196Z" fill="#CD102C"/>
<path fill-rule="evenodd" clip-rule="evenodd" d="M83.0454 12.5676C83.1159 10.9058 82.677 9.95652 81.7278 9.71899H84.5746H85.3181V16.8197C85.3041 18.1041 85.8 18.9071 86.8053 19.2285H81.6641C82.3014 18.949 82.7191 18.523 82.9175 17.9503C83.0021 17.699 83.045 17.322 83.045 16.8197V15.3744V12.5676H83.0454Z" fill="white"/>
<path fill-rule="evenodd" clip-rule="evenodd" d="M96.6844 10.5777C97.1663 11.1361 97.4068 11.953 97.4068 13.0284V16.9453C97.3927 17.5314 97.4633 17.9997 97.6192 18.3487C97.8176 18.8099 98.1928 19.1027 98.7452 19.2288H94.0076C94.8574 18.9771 95.2326 18.1953 95.1336 16.8825V13.4054C95.1336 12.6652 94.9917 12.1139 94.7087 11.7507C94.4533 11.4713 94.1066 11.3389 93.6677 11.3527C93.0304 11.3804 92.3149 11.7578 91.522 12.4838V16.9453C91.5076 17.6432 91.6988 18.2297 92.0956 18.7048C92.294 18.9419 92.4993 19.1166 92.7117 19.2284H87.8042C88.7674 18.8371 89.2484 18.0693 89.2484 16.9244V15.3744V13.573V12.5676C89.3194 10.9057 88.8805 9.95647 87.9312 9.71894H90.119V9.698H91.5216V11.1014C92.1445 10.6267 92.4699 10.3754 92.4988 10.3473C93.2067 9.9284 93.915 9.71182 94.6233 9.698C95.516 9.698 96.203 9.99124 96.6844 10.5777Z" fill="white"/>
</svg>
