<svg width="14" height="13" viewBox="0 0 14 13" fill="none" xmlns="http://www.w3.org/2000/svg">
<path fill-rule="evenodd" clip-rule="evenodd" d="M2.51925 9.68276V11.5879H11.4838V9.68276H2.51925ZM11.4838 8.33793V7.86724C11.4838 7.68793 11.5515 7.53104 11.687 7.3961C11.8225 7.26162 11.9805 7.19483 12.1612 7.19483C12.3418 7.19483 12.4999 7.26162 12.6354 7.3961C12.7713 7.53104 12.8386 7.68748 12.8386 7.86724V12.2603C12.8386 12.4392 12.7713 12.5966 12.6354 12.731C12.4999 12.8655 12.3423 12.9328 12.1612 12.9328H1.84183C1.66119 12.9328 1.50312 12.8655 1.36764 12.731C1.23215 12.5966 1.16441 12.4397 1.16441 12.2603V7.86724C1.16441 7.68793 1.23215 7.53104 1.36764 7.3961C1.50312 7.26162 1.66119 7.19483 1.84183 7.19483C2.02248 7.19483 2.18054 7.26162 2.31602 7.3961C2.45151 7.53104 2.51925 7.68748 2.51925 7.86724V8.33793H11.4838ZM9.36119 3.7431C9.54183 3.7431 9.69222 3.81034 9.8128 3.94483C9.94874 4.06452 10.016 4.21379 10.016 4.3931V4.59483H11.8225L9.90312 1.34483H3.76119L1.86441 4.59483H3.67086V4.3931C3.67086 4.21379 3.73093 4.06452 3.85151 3.94483C3.98699 3.81034 4.13738 3.7431 4.30312 3.7431C4.46886 3.7431 4.61925 3.81034 4.75473 3.94483C4.89022 4.06452 4.95796 4.21379 4.95796 4.3931V4.59483H6.1999V4.3931C6.1999 4.21379 6.25996 4.06452 6.38054 3.94483C6.51602 3.81034 6.66686 3.7431 6.83215 3.7431C7.0128 3.7431 7.16319 3.81034 7.28377 3.94483C7.41925 4.06452 7.48699 4.21379 7.48699 4.3931V4.59483H8.72893V4.3931C8.72893 4.21379 8.78899 4.06452 8.90912 3.94483C9.04506 3.81034 9.19545 3.7431 9.36119 3.7431ZM10.6257 0.0896552C10.7309 0.149276 10.8136 0.231759 10.8741 0.336207L13.5838 4.93104C13.6587 5.06552 13.689 5.21479 13.6741 5.37931C13.6438 5.54383 13.5689 5.67831 13.4483 5.78276C13.3123 5.88721 13.162 5.93966 12.9967 5.93966H0.667637C0.501895 5.93966 0.358733 5.88721 0.238604 5.78276C0.10312 5.67831 0.0277011 5.54383 0.0127979 5.37931C-0.0170086 5.21479 0.00512048 5.06552 0.0805398 4.93104L2.79022 0.336207C2.85028 0.231759 2.93338 0.149276 3.0386 0.0896552C3.14383 0.0300345 3.25673 0 3.37731 0H10.287C10.4076 0 10.5205 0.0300345 10.6257 0.0896552Z" fill="#987D8C"/>
</svg>
