<svg width="13" height="13" viewBox="0 0 13 13" fill="none" xmlns="http://www.w3.org/2000/svg">
<path fill-rule="evenodd" clip-rule="evenodd" d="M6.47759 0C6.86579 0 7.18721 0.134483 7.44093 0.403448C7.71035 0.657621 7.852 0.963793 7.86679 1.32241C10.3924 1.96524 11.5355 4.22141 11.2961 8.09183V8.11424C11.2661 9.11524 11.535 9.78048 12.103 10.1091H12.3271C12.5064 10.1091 12.6633 10.1759 12.7978 10.3103C12.9323 10.4453 12.9996 10.5946 12.9996 10.7586C12.9996 10.9379 12.9323 11.0948 12.7978 11.2298C12.6633 11.3642 12.5069 11.431 12.3271 11.431H8.38231C8.36752 11.431 8.35228 11.431 8.33703 11.431C8.24783 11.7596 8.07569 12.0586 7.82197 12.3276C7.4481 12.6867 6.99983 12.8655 6.47714 12.8655C5.96879 12.8655 5.51334 12.6867 5.1099 12.3276C4.87097 12.0586 4.71407 11.7596 4.63921 11.431C4.62397 11.431 4.60917 11.431 4.59438 11.431H0.649552C0.470241 11.431 0.313345 11.3642 0.178862 11.2298C0.0596207 11.0948 0 10.9379 0 10.7586C0 10.5946 0.0596207 10.4453 0.17931 10.3103C0.313793 10.1759 0.47069 10.1091 0.65 10.1091H0.874138C1.4421 9.78048 1.71062 9.11524 1.68103 8.11424V8.09183C1.4421 4.23621 2.57759 1.98766 5.08793 1.34528C5.10272 0.971862 5.23721 0.658069 5.49138 0.403897C5.77514 0.134483 6.10417 0 6.47759 0ZM7.03793 2.51034C6.97786 2.4951 6.91107 2.48031 6.83621 2.46552H6.14138C6.08131 2.48031 6.02169 2.4951 5.96207 2.51034C3.78076 2.91379 2.79455 4.75172 3.00345 8.02414V8.04655C3.03303 8.88348 2.92097 9.57069 2.66724 10.1091H10.3328C10.079 9.57114 9.96697 8.88393 9.99655 8.04655V8.02414C10.1907 4.75172 9.20445 2.91379 7.03793 2.51034Z" fill="#987D8C"/>
</svg>
