<svg width="15" height="13" viewBox="0 0 15 13" fill="none" xmlns="http://www.w3.org/2000/svg">
<path fill-rule="evenodd" clip-rule="evenodd" d="M13.4037 2.10202C13.9637 3.07702 14.1425 4.12956 13.9399 5.25917C13.6445 7.53417 11.4979 10.0102 7.49994 12.6877C7.42248 12.7346 7.33661 12.7885 7.24328 12.8507L7.01041 12.9895L6.77708 12.8502C6.68374 12.788 6.59834 12.7342 6.52041 12.6873C2.52248 10.0097 0.375809 7.5337 0.0804094 5.2587C-0.121657 4.12863 0.057076 3.07656 0.617076 2.10156C1.19248 1.14234 2.01708 0.507666 3.09041 0.197987C4.02374 -0.0805843 4.87914 -0.0652628 5.65708 0.244416C5.98374 0.352594 6.27121 0.507666 6.52041 0.708701C6.70708 0.847987 6.87041 1.00259 7.01041 1.17299C7.15041 1.00259 7.31374 0.847987 7.50041 0.708701C7.74914 0.507666 8.03708 0.352594 8.36421 0.244416C9.14168 -0.0652628 9.99754 -0.0805843 10.9309 0.197987C12.0037 0.50813 12.8283 1.14234 13.4037 2.10202ZM10.4871 1.52167C9.70914 1.28952 8.97834 1.38238 8.29374 1.80024C7.99788 1.97063 7.73374 2.18699 7.50041 2.45024C7.32961 2.63595 7.16581 2.84488 7.01041 3.07702C6.85501 2.84488 6.69168 2.63595 6.52041 2.45024C6.28708 2.18745 6.02248 1.97063 5.72708 1.80024C5.04248 1.38238 4.31168 1.28952 3.53374 1.52167C2.04041 1.95484 1.36374 3.09234 1.50374 4.93417C1.62834 6.65202 3.30041 8.67956 6.52041 11.0163C6.67581 11.1245 6.83914 11.2406 7.01041 11.3645C7.18121 11.2406 7.34501 11.1245 7.50041 11.0163C10.7204 8.67956 12.3925 6.65202 12.5171 4.93417C12.6571 3.09234 11.9804 1.95484 10.4871 1.52167Z" fill="#987D8C"/>
</svg>
